:FULLY-SPECIFIED
:FORCE-ALL-JOINTS-BE-3DOF
:DEGREES
611
root 5.63209 16.6842 -3.7853 0.196006 52.3324 -7.71452
lfemur -17.8542 24.6866 -22.2769
ltibia 40.1921 -0 0
lfoot -33.007 25.3668 -0.00776657
ltoes 19.2057 -0 0
rfemur -53.0745 -17.9032 27.5723
rtibia 63.0832 -0 0
rfoot 8.45704 29.8871 -0.00496094
rtoes -5.03324 0 0
lowerback 3.56726 -3.33853 -4.81683
upperback 0.0845351 -4.62446 1.12901
thorax -1.43616 -2.2754 4.05872
lowerneck -8.43391 -9.31699 -0.478201
upperneck 14.9773 -13.2648 4.35
head 6.27003 -6.10839 0.382756
lclavicle 0 0 0
lhumerus -22.2469 -42.0252 92.9735
lradius 56.8003 -0 0
lwrist 20.6272 0 0
lhand -10.7547 0.119486 0.00143809
lfingers 0 -0 0
lthumb 15.2568 29.5366 0.00133046
rclavicle 0 0 0
rhumerus 22.3013 3.55128 -72.141
rradius 117.997 -0 0
rwrist -58.7346 0 0
rhand -27.3065 -22.8224 0.0130577
rfingers 0 -0 0
rthumb -0.716156 -52.7986 0.0125532
612
root 5.64404 16.7048 -3.7994 0.740859 50.6476 -7.25709
lfemur -17.6315 24.8679 -22.5916
ltibia 39.6782 -0 0
lfoot -33.5077 25.663 -0.0129447
ltoes 20.851 -0 0
rfemur -53.0992 -18.0025 27.0196
rtibia 64.4152 -0 0
rfoot 8.84073 29.6402 -0.00826841
rtoes -6.23504 0 0
lowerback 3.42319 -3.41096 -4.64551
upperback -0.0268624 -4.70882 1.17326
thorax -1.47226 -2.31588 4.00593
lowerneck -8.61105 -9.10156 -0.325915
upperneck 15.0606 -12.9516 4.03705
head 6.28895 -5.96857 0.281461
lclavicle 0 0 0
lhumerus -22.2377 -42.6292 93.5175
lradius 57.3999 -0 0
lwrist 20.5874 0 0
lhand -10.878 -0.10324 0.00239683
lfingers 0 -0 0
lthumb 15.138 29.3227 0.00221744
rclavicle 0 0 0
rhumerus 21.8382 3.21189 -71.8786
rradius 116.667 -0 0
rwrist -58.7073 0 0
rhand -27.7001 -23.4561 0.0217641
rfingers 0 -0 0
rthumb -1.09625 -53.4294 0.0209231
613
root 5.65599 16.7255 -3.8135 1.24656 48.9602 -6.83974
lfemur -17.4096 25.0502 -22.906
ltibia 39.1642 -0 0
lfoot -34.0085 25.9592 -0.0155339
ltoes 22.4962 -0 0
rfemur -53.1229 -18.102 26.4666
rtibia 65.7473 -0 0
rfoot 9.22443 29.3932 -0.0099222
rtoes -7.43683 0 0
lowerback 3.27889 -3.48296 -4.47399
upperback -0.138339 -4.7931 1.21768
thorax -1.50833 -2.3564 3.95316
lowerneck -8.7875 -8.88566 -0.174394
upperneck 15.142 -12.6379 3.72496
head 6.30762 -5.82872 0.180238
lclavicle 0 0 0
lhumerus -22.2362 -43.2332 94.0668
lradius 57.9996 -0 0
lwrist 20.5475 0 0
lhand -11.0013 -0.325967 0.00287621
lfingers 0 -0 0
lthumb 15.0192 29.1088 0.00266094
rclavicle 0 0 0
rhumerus 21.3738 2.87463 -71.6135
rradius 115.336 -0 0
rwrist -58.6799 0 0
rhand -28.0937 -24.0897 0.0261177
rfingers 0 -0 0
rthumb -1.4764 -54.0601 0.0251084
614
root 5.66795 16.7462 -3.82759 1.71779 47.2706 -6.45785
lfemur -17.1884 25.2336 -23.22
ltibia 38.6502 -0 0
lfoot -34.5092 26.2555 -0.0155339
ltoes 24.1415 -0 0
rfemur -53.1455 -18.2016 25.9134
rtibia 67.0793 -0 0
rfoot 9.60814 29.1463 -0.0099222
rtoes -8.63862 0 0
lowerback 3.13436 -3.55452 -4.30229
upperback -0.249895 -4.87729 1.26226
thorax -1.54436 -2.39695 3.90041
lowerneck -8.96326 -8.6693 -0.0236348
upperneck 15.2216 -12.3238 3.4137
head 6.32604 -5.68883 0.0790863
lclavicle 0 0 0
lhumerus -22.2428 -43.8372 94.6215
lradius 58.5993 -0 0
lwrist 20.5076 0 0
lhand -11.1247 -0.548694 0.00287621
lfingers 0 -0 0
lthumb 14.9004 28.895 0.00266094
rclavicle 0 0 0
rhumerus 20.908 2.53953 -71.3457
rradius 114.005 -0 0
rwrist -58.6526 0 0
rhand -28.4874 -24.7234 0.0261177
rfingers 0 -0 0
rthumb -1.85659 -54.6909 0.0251084
615
root 5.6799 16.7669 -3.84169 2.15853 45.5791 -6.10748
lfemur -16.968 25.4182 -23.5338
ltibia 38.1362 -0 0
lfoot -35.01 26.5517 -0.0129447
ltoes 25.7867 -0 0
rfemur -53.1672 -18.3015 25.3598
rtibia 68.4114 -0 0
rfoot 9.99184 28.8993 -0.00826841
rtoes -9.84041 0 0
lowerback 2.98961 -3.62566 -4.13038
upperback -0.36153 -4.96139 1.30702
thorax -1.58036 -2.43753 3.84769
lowerneck -9.13836 -8.45249 0.126367
upperneck 15.2994 -12.0093 3.10326
head 6.34421 -5.54892 -0.0219963
lclavicle 0 0 0
lhumerus -22.2576 -44.4412 95.1821
lradius 59.199 -0 0
lwrist 20.4677 0 0
lhand -11.248 -0.771421 0.00239683
lfingers 0 -0 0
lthumb 14.7816 28.6811 0.00221744
rclavicle 0 0 0
rhumerus 20.4406 2.20662 -71.0754
rradius 112.674 -0 0
rwrist -58.6252 0 0
rhand -28.881 -25.357 0.0217641
rfingers 0 -0 0
rthumb -2.23675 -55.3216 0.0209231
616
root 5.69185 16.7875 -3.85579 2.57219 43.8858 -5.78528
lfemur -16.7484 25.6038 -23.8473
ltibia 37.6223 -0 0
lfoot -35.5107 26.8479 -0.00776657
ltoes 27.432 -0 0
rfemur -53.1879 -18.4016 24.806
rtibia 69.7434 -0 0
rfoot 10.3755 28.6524 -0.00496094
rtoes -11.0422 0 0
lowerback 2.84463 -3.69636 -3.95829
upperback -0.473246 -5.04541 1.35195
thorax -1.61632 -2.47814 3.79499
lowerneck -9.31278 -8.23522 0.275615
upperneck 15.3753 -11.6943 2.79361
head 6.36212 -5.40897 -0.123011
lclavicle 0 0 0
lhumerus -22.281 -45.045 95.7488
lradius 59.7986 -0 0
lwrist 20.4279 0 0
lhand -11.3713 -0.994147 0.00143809
lfingers 0 -0 0
lthumb 14.6628 28.4672 0.00133046
rclavicle 0 0 0
rhumerus 19.9719 1.87592 -70.8023
rradius 111.344 -0 0
rwrist -58.5979 0 0
rhand -29.2746 -25.9907 0.0130577
rfingers 0 -0 0
rthumb -2.61684 -55.9524 0.0125532
617
root 5.7038 16.8082 -3.86989 2.96174 42.1909 -5.48836
lfemur -16.5296 25.7905 -24.1604
ltibia 37.1083 0 0
lfoot -36.0114 27.1441 0
ltoes 29.0772 0 0
rfemur -53.2075 -18.5019 24.2519
rtibia 71.0755 0 0
rfoot 10.7592 28.4055 0
rtoes -12.244 0 0
lowerback 2.69943 -3.76662 -3.786
upperback -0.585043 -5.12934 1.39705
thorax -1.65224 -2.51879 3.74232
lowerneck -9.48653 -8.01751 0.424114
upperneck 15.4494 -11.379 2.48474
head 6.37978 -5.26899 -0.223958
lclavicle 2.2413e-14 1.98785e-14 0
lhumerus -22.3131 -45.6486 96.3219
lradius 60.3983 0 0
lwrist 20.388 0 0
lhand -11.4946 -1.21687 0
lfingers 7.12502 0 0
lthumb 14.544 28.2533 0
rclavicle 2.2413e-14 1.98785e-14 0
rhumerus 19.5016 1.54748 -70.5266
rradius 110.013 0 0
rwrist -58.5705 0 0
rhand -29.668 -26.6242 0
rfingers 7.12502 0 0
rthumb -2.99681 -776.583 0
618
root 5.71585 16.8226 -3.85873 3.3651 40.9831 -5.38721
lfemur -16.2858 25.1001 -24.0314
ltibia 36.7567 -0 0
lfoot -35.8584 26.7451 -0.00319643
ltoes 29.1818 -0 0
rfemur -52.5869 -18.4783 23.6895
rtibia 70.7257 -0 0
rfoot 10.3989 26.6169 0.0338494
rtoes -12.979 0 0
lowerback 2.44907 -3.75189 -3.6461
upperback -0.711095 -5.09576 1.52839
thorax -1.64484 -2.50085 3.78594
lowerneck -9.58439 -7.93495 0.498267
upperneck 15.3915 -11.2699 2.43354
head 6.3699 -5.21715 -0.244613
lclavicle -0 0 0
lhumerus -22.3574 -46.2835 96.9944
lradius 61.0076 -0 0
lwrist 20.411 0 0
lhand -11.5333 -1.29521 0.000158684
lfingers 0 -0 0
lthumb 14.5067 28.1776 0.000147703
rclavicle -0 0 0
rhumerus 18.1519 1.52033 -69.8496
rradius 108.984 -0 0
rwrist -58.1755 0 0
rhand -29.8174 -26.8046 0.00141111
rfingers 0 -0 0
rthumb -3.1411 -56.761 0.00134479
619
root 5.7279 16.837 -3.84757 3.75853 39.7748 -5.29892
lfemur -16.045 24.4093 -23.9064
ltibia 36.4051 -0 0
lfoot -35.7054 26.346 -0.00532749
ltoes 29.2864 -0 0
rfemur -51.9666 -18.4489 23.1276
rtibia 70.3759 -0 0
rfoot 10.0376 24.8281 0.0564347
rtoes -13.714 0 0
lowerback 2.19876 -3.73655 -3.50627
upperback -0.837064 -5.06189 1.65965
thorax -1.63742 -2.48292 3.82956
lowerneck -9.68213 -7.85226 0.572262
upperneck 15.3334 -11.1609 2.38224
head 6.36 -5.16532 -0.265275
lclavicle -0 0 0
lhumerus -22.4132 -46.918 97.6754
lradius 61.6168 -0 0
lwrist 20.434 0 0
lhand -11.572 -1.37355 0.000264474
lfingers 0 -0 0
lthumb 14.4695 28.1019 0.000246172
rclavicle -0 0 0
rhumerus 16.802 1.50913 -69.1722
rradius 107.954 -0 0
rwrist -57.7806 0 0
rhand -29.9668 -26.9849 0.00235187
rfingers 0 -0 0
rthumb -3.28538 -56.939 0.00224133
620
root 5.73995 16.8514 -3.83641 4.14286 38.566 -5.22275
lfemur -15.8072 23.7179 -23.7853
ltibia 36.0535 -0 0
lfoot -35.5525 25.947 -0.00639304
ltoes 29.391 -0 0
rfemur -51.3468 -18.4138 22.5661
rtibia 70.0261 -0 0
rfoot 9.6759 23.0392 0.0677332
rtoes -14.449 0 0
lowerback 1.94849 -3.7206 -3.36651
upperback -0.962947 -5.02774 1.79082
thorax -1.62999 -2.46499 3.87318
lowerneck -9.77974 -7.76945 0.646101
upperneck 15.2754 -11.052 2.33086
head 6.35008 -5.11348 -0.285944
lclavicle -0 0 0
lhumerus -22.4808 -47.5521 98.3657
lradius 62.2261 -0 0
lwrist 20.457 0 0
lhand -11.6107 -1.45189 0.000317368
lfingers 0 -0 0
lthumb 14.4322 28.0262 0.000295406
rclavicle -0 0 0
rhumerus 15.4521 1.51389 -68.4947
rradius 106.925 -0 0
rwrist -57.3856 0 0
rhand -30.1162 -27.1653 0.00282225
rfingers 0 -0 0
rthumb -3.42967 -57.117 0.0026896
621
root 5.75201 16.8657 -3.82526 4.5189 37.3569 -5.15803
lfemur -15.5721 23.0262 -23.6678
ltibia 35.7018 -0 0
lfoot -35.3994 25.548 -0.00639304
ltoes 29.4957 -0 0
rfemur -50.7276 -18.3729 22.0051
rtibia 69.6763 -0 0
rfoot 9.31397 21.2502 0.0677332
rtoes -15.184 0 0
lowerback 1.69826 -3.70404 -3.22682
upperback -1.08874 -4.99329 1.92191
thorax -1.62255 -2.44707 3.9168
lowerneck -9.87722 -7.68651 0.719782
upperneck 15.2172 -10.9431 2.27938
head 6.34015 -5.06165 -0.306621
lclavicle -0 0 0
lhumerus -22.5607 -48.1855 99.0655
lradius 62.8354 -0 0
lwrist 20.4801 0 0
lhand -11.6493 -1.53023 0.000317368
lfingers 0 -0 0
lthumb 14.3949 27.9506 0.000295406
rclavicle -0 0 0
rhumerus 14.1023 1.5346 -67.8175
rradius 105.896 -0 0
rwrist -56.9906 0 0
rhand -30.2657 -27.3457 0.00282225
rfingers 0 -0 0
rthumb -3.57397 -57.295 0.0026896
622
root 5.76406 16.8801 -3.8141 4.88737 36.1475 -5.10414
lfemur -15.3399 22.334 -23.5541
ltibia 35.3502 -0 0
lfoot -35.2465 25.149 -0.00532749
ltoes 29.6003 -0 0
rfemur -50.1089 -18.3263 21.4448
rtibia 69.3265 -0 0
rfoot 8.95223 19.4613 0.0564347
rtoes -15.919 0 0
lowerback 1.44808 -3.68688 -3.08721
upperback -1.21446 -4.95857 2.05292
thorax -1.61509 -2.42915 3.96043
lowerneck -9.97457 -7.60345 0.793307
upperneck 15.1589 -10.8342 2.2278
head 6.33019 -5.00983 -0.327305
lclavicle -0 0 0
lhumerus -22.6534 -48.8182 99.7754
lradius 63.4447 -0 0
lwrist 20.5031 0 0
lhand -11.688 -1.60857 0.000264474
lfingers 0 -0 0
lthumb 14.3576 27.8749 0.000246172
rclavicle -0 0 0
rhumerus 12.7528 1.57125 -67.141
rradius 104.867 -0 0
rwrist -56.5956 0 0
rhand -30.4151 -27.5261 0.00235187
rfingers 0 -0 0
rthumb -3.71826 -57.473 0.00224133
